# MagicaVoxel @ Ephtracy

# group
o 

# material
mtllib Chest.mtl
usemtl palette

# normals
vn -1 0 0
vn 1 0 0
vn 0 0 1
vn 0 0 -1
vn 0 -1 0
vn 0 1 0

# texcoords
vt 0.0214844 0.5
vt 0.0449219 0.5
vt 0.537109 0.5

# verts
v 0.3 2 -1.1
v 0.3 2 -2.7
v 0.3 2.1 -1.2
v 0.3 2.1 -2.6
v 0.3 3.2 -1.2
v 0.3 3.2 -2.6
v 0.3 3.3 -1.2
v 0.3 3.3 -2.6
v 0.3 3.7 -1.2
v 0.3 3.7 -2.6
v 0.3 3.8 -1.1
v 0.3 3.8 -2.7
v 1.7 3 -2.7
v 1.7 3 -2.8
v 1.7 3.2 -2.7
v 1.7 3.3 -2.7
v 1.7 3.4 -2.7
v 1.7 3.4 -2.8
v 3.6 2.1 -1.2
v 3.6 2.1 -2.6
v 3.6 3 -1.2
v 3.6 3 -2.6
v 0.4 2.1 -1.2
v 0.4 2.1 -2.6
v 0.4 3 -1.2
v 0.4 3 -2.6
v 2.3 3 -2.7
v 2.3 3 -2.8
v 2.3 3.2 -2.7
v 2.3 3.3 -2.7
v 2.3 3.4 -2.7
v 2.3 3.4 -2.8
v 3.7 2 -1.1
v 3.7 2 -2.7
v 3.7 2.1 -1.2
v 3.7 2.1 -2.6
v 3.7 3.2 -1.2
v 3.7 3.2 -2.6
v 3.7 3.3 -1.2
v 3.7 3.3 -2.6
v 3.7 3.7 -1.2
v 3.7 3.7 -2.6
v 3.7 3.8 -1.1
v 3.7 3.8 -2.7
v 0.3 2 -1.1
v 0.3 3.8 -1.1
v 0.4 2.1 -1.1
v 0.4 3.2 -1.1
v 0.4 3.3 -1.1
v 0.4 3.7 -1.1
v 3.6 2.1 -1.1
v 3.6 3.2 -1.1
v 3.6 3.3 -1.1
v 3.6 3.7 -1.1
v 3.7 2 -1.1
v 3.7 3.8 -1.1
v 0.4 2.1 -2.6
v 0.4 3 -2.6
v 3.6 2.1 -2.6
v 3.6 3 -2.6
v 0.4 2.1 -1.2
v 0.4 3 -1.2
v 3.6 2.1 -1.2
v 3.6 3 -1.2
v 0.3 2 -2.7
v 0.3 3.8 -2.7
v 0.4 2.1 -2.7
v 0.4 3.2 -2.7
v 0.4 3.3 -2.7
v 0.4 3.7 -2.7
v 1.7 3 -2.7
v 1.7 3.2 -2.7
v 1.7 3.3 -2.7
v 1.7 3.4 -2.7
v 2.3 3 -2.7
v 2.3 3.2 -2.7
v 2.3 3.3 -2.7
v 2.3 3.4 -2.7
v 3.6 2.1 -2.7
v 3.6 3.2 -2.7
v 3.6 3.3 -2.7
v 3.6 3.7 -2.7
v 3.7 2 -2.7
v 3.7 3.8 -2.7
v 1.7 3 -2.8
v 1.7 3.4 -2.8
v 2.3 3 -2.8
v 2.3 3.4 -2.8
v 0.3 2 -1.1
v 3.7 2 -1.1
v 0.4 2 -1.2
v 3.6 2 -1.2
v 0.4 2 -2.6
v 3.6 2 -2.6
v 0.3 2 -2.7
v 3.7 2 -2.7
v 0.4 3 -1.2
v 3.6 3 -1.2
v 0.4 3 -2.6
v 3.6 3 -2.6
v 1.7 3 -2.7
v 2.3 3 -2.7
v 1.7 3 -2.8
v 2.3 3 -2.8
v 0.4 2.1 -1.2
v 3.6 2.1 -1.2
v 0.4 2.1 -2.6
v 3.6 2.1 -2.6
v 1.7 3.4 -2.7
v 2.3 3.4 -2.7
v 1.7 3.4 -2.8
v 2.3 3.4 -2.8
v 0.3 3.8 -1.1
v 3.7 3.8 -1.1
v 0.4 3.8 -1.2
v 3.6 3.8 -1.2
v 0.4 3.8 -2.6
v 3.6 3.8 -2.6
v 0.3 3.8 -2.7
v 3.7 3.8 -2.7

# faces
f 3/2/1 2/2/1 1/2/1
f 4/2/1 2/2/1 3/2/1
f 5/2/1 3/2/1 1/2/1
f 5/3/1 4/3/1 3/3/1
f 6/2/1 2/2/1 4/2/1
f 6/3/1 4/3/1 5/3/1
f 7/2/1 5/2/1 1/2/1
f 7/2/1 6/2/1 5/2/1
f 8/2/1 2/2/1 6/2/1
f 8/2/1 6/2/1 7/2/1
f 9/2/1 7/2/1 1/2/1
f 9/3/1 8/3/1 7/3/1
f 10/2/1 2/2/1 8/2/1
f 10/3/1 8/3/1 9/3/1
f 11/2/1 9/2/1 1/2/1
f 11/2/1 10/2/1 9/2/1
f 12/2/1 2/2/1 10/2/1
f 12/2/1 10/2/1 11/2/1
f 15/1/1 14/1/1 13/1/1
f 16/1/1 14/1/1 15/1/1
f 17/1/1 14/1/1 16/1/1
f 18/1/1 14/1/1 17/1/1
f 21/3/1 20/3/1 19/3/1
f 22/3/1 20/3/1 21/3/1
f 23/3/2 24/3/2 25/3/2
f 25/3/2 24/3/2 26/3/2
f 27/1/2 28/1/2 29/1/2
f 29/1/2 28/1/2 30/1/2
f 30/1/2 28/1/2 31/1/2
f 31/1/2 28/1/2 32/1/2
f 33/2/2 34/2/2 35/2/2
f 35/2/2 34/2/2 36/2/2
f 33/2/2 35/2/2 37/2/2
f 35/3/2 36/3/2 37/3/2
f 36/2/2 34/2/2 38/2/2
f 37/3/2 36/3/2 38/3/2
f 33/2/2 37/2/2 39/2/2
f 37/2/2 38/2/2 39/2/2
f 38/2/2 34/2/2 40/2/2
f 39/2/2 38/2/2 40/2/2
f 33/2/2 39/2/2 41/2/2
f 39/3/2 40/3/2 41/3/2
f 40/2/2 34/2/2 42/2/2
f 41/3/2 40/3/2 42/3/2
f 33/2/2 41/2/2 43/2/2
f 41/2/2 42/2/2 43/2/2
f 42/2/2 34/2/2 44/2/2
f 43/2/2 42/2/2 44/2/2
f 47/2/3 46/2/3 45/2/3
f 48/2/3 46/2/3 47/2/3
f 49/2/3 46/2/3 48/2/3
f 50/2/3 46/2/3 49/2/3
f 51/2/3 47/2/3 45/2/3
f 51/3/3 48/3/3 47/3/3
f 52/2/3 49/2/3 48/2/3
f 52/3/3 48/3/3 51/3/3
f 53/3/3 50/3/3 49/3/3
f 53/2/3 49/2/3 52/2/3
f 54/2/3 46/2/3 50/2/3
f 54/3/3 50/3/3 53/3/3
f 55/2/3 53/2/3 52/2/3
f 55/2/3 52/2/3 51/2/3
f 55/2/3 54/2/3 53/2/3
f 55/2/3 51/2/3 45/2/3
f 56/2/3 46/2/3 54/2/3
f 56/2/3 54/2/3 55/2/3
f 59/3/3 58/3/3 57/3/3
f 60/3/3 58/3/3 59/3/3
f 61/3/4 62/3/4 63/3/4
f 63/3/4 62/3/4 64/3/4
f 65/2/4 66/2/4 67/2/4
f 67/2/4 66/2/4 68/2/4
f 68/2/4 66/2/4 69/2/4
f 69/2/4 66/2/4 70/2/4
f 67/3/4 68/3/4 71/3/4
f 68/2/4 69/2/4 72/2/4
f 71/3/4 68/3/4 72/3/4
f 69/3/4 70/3/4 73/3/4
f 72/2/4 69/2/4 73/2/4
f 73/3/4 70/3/4 74/3/4
f 67/3/4 71/3/4 75/3/4
f 74/3/4 70/3/4 78/3/4
f 65/2/4 67/2/4 79/2/4
f 67/3/4 75/3/4 79/3/4
f 75/3/4 76/3/4 79/3/4
f 76/2/4 77/2/4 80/2/4
f 79/3/4 76/3/4 80/3/4
f 77/3/4 78/3/4 81/3/4
f 80/2/4 77/2/4 81/2/4
f 70/2/4 66/2/4 82/2/4
f 81/3/4 78/3/4 82/3/4
f 78/3/4 70/3/4 82/3/4
f 79/2/4 80/2/4 83/2/4
f 80/2/4 81/2/4 83/2/4
f 81/2/4 82/2/4 83/2/4
f 65/2/4 79/2/4 83/2/4
f 82/2/4 66/2/4 84/2/4
f 83/2/4 82/2/4 84/2/4
f 85/1/4 86/1/4 87/1/4
f 87/1/4 86/1/4 88/1/4
f 91/2/5 90/2/5 89/2/5
f 92/2/5 90/2/5 91/2/5
f 93/2/5 91/2/5 89/2/5
f 93/3/5 92/3/5 91/3/5
f 94/2/5 90/2/5 92/2/5
f 94/3/5 92/3/5 93/3/5
f 95/2/5 93/2/5 89/2/5
f 95/2/5 94/2/5 93/2/5
f 96/2/5 90/2/5 94/2/5
f 96/2/5 94/2/5 95/2/5
f 99/3/5 98/3/5 97/3/5
f 100/3/5 98/3/5 99/3/5
f 103/1/5 102/1/5 101/1/5
f 104/1/5 102/1/5 103/1/5
f 105/3/6 106/3/6 107/3/6
f 107/3/6 106/3/6 108/3/6
f 109/1/6 110/1/6 111/1/6
f 111/1/6 110/1/6 112/1/6
f 113/2/6 114/2/6 115/2/6
f 115/2/6 114/2/6 116/2/6
f 113/2/6 115/2/6 117/2/6
f 115/3/6 116/3/6 117/3/6
f 116/2/6 114/2/6 118/2/6
f 117/3/6 116/3/6 118/3/6
f 113/2/6 117/2/6 119/2/6
f 117/2/6 118/2/6 119/2/6
f 118/2/6 114/2/6 120/2/6
f 119/2/6 118/2/6 120/2/6
