# MagicaVoxel @ Ephtracy

# group
o 

# material
mtllib Skull.mtl
usemtl palette

# normals
vn -1 0 0
vn 1 0 0
vn 0 0 1
vn 0 0 -1
vn 0 -1 0
vn 0 1 0

# texcoords
vt 0.845703 0.5
vt 0.962891 0.5
vt 0.974609 0.5
vt 0.978516 0.5

# verts
v 1.1 2 -2
v 1.1 2 -2.8
v 1.1 2.7 -2
v 1.1 2.7 -2.8
v 1.7 2 -2.1
v 1.7 2 -2.2
v 1.7 2 -2.3
v 1.7 2 -2.4
v 1.7 2 -2.5
v 1.7 2 -2.6
v 1.7 2 -2.7
v 1.7 2 -2.8
v 1.7 2.1 -2.1
v 1.7 2.1 -2.2
v 1.7 2.1 -2.3
v 1.7 2.1 -2.4
v 1.7 2.1 -2.5
v 1.7 2.1 -2.6
v 1.7 2.1 -2.7
v 1.7 2.1 -2.8
v 1.7 2.2 -2.3
v 1.7 2.2 -2.5
v 1.7 2.3 -2.3
v 1.7 2.3 -2.5
v 1.7 2.4 -2.1
v 1.7 2.4 -2.3
v 1.7 2.4 -2.5
v 1.7 2.4 -2.7
v 1.7 2.5 -2.2
v 1.7 2.5 -2.3
v 1.7 2.5 -2.5
v 1.7 2.5 -2.6
v 1.7 2.6 -2.1
v 1.7 2.6 -2.2
v 1.7 2.6 -2.6
v 1.7 2.6 -2.7
v 1.8 2 -2
v 1.8 2 -2.1
v 1.8 2 -2.2
v 1.8 2 -2.3
v 1.8 2 -2.4
v 1.8 2 -2.5
v 1.8 2 -2.6
v 1.8 2 -2.7
v 1.8 2.1 -2
v 1.8 2.1 -2.1
v 1.8 2.1 -2.2
v 1.8 2.1 -2.3
v 1.8 2.1 -2.4
v 1.8 2.1 -2.5
v 1.8 2.1 -2.6
v 1.8 2.1 -2.7
v 1.8 2.1 -2.8
v 1.8 2.2 -2.3
v 1.8 2.2 -2.5
v 1.8 2.3 -2.3
v 1.8 2.3 -2.5
v 1.8 2.4 -2.1
v 1.8 2.4 -2.3
v 1.8 2.4 -2.5
v 1.8 2.4 -2.7
v 1.8 2.5 -2.2
v 1.8 2.5 -2.3
v 1.8 2.5 -2.5
v 1.8 2.5 -2.6
v 1.8 2.6 -2.1
v 1.8 2.6 -2.2
v 1.8 2.6 -2.6
v 1.8 2.6 -2.7
v 1.8 2.7 -2
v 1.8 2.7 -2.8
v 1.1 2 -2
v 1.1 2.7 -2
v 1.7 2 -2
v 1.7 2.1 -2
v 1.8 2 -2
v 1.8 2.1 -2
v 1.8 2.7 -2
v 1.7 2 -2.2
v 1.7 2.1 -2.2
v 1.7 2.5 -2.2
v 1.7 2.6 -2.2
v 1.8 2 -2.2
v 1.8 2.1 -2.2
v 1.8 2.5 -2.2
v 1.8 2.6 -2.2
v 1.7 2.4 -2.3
v 1.7 2.5 -2.3
v 1.8 2.4 -2.3
v 1.8 2.5 -2.3
v 1.7 2 -2.4
v 1.7 2.1 -2.4
v 1.8 2 -2.4
v 1.8 2.1 -2.4
v 1.7 2.2 -2.5
v 1.7 2.3 -2.5
v 1.8 2.2 -2.5
v 1.8 2.3 -2.5
v 1.7 2 -2.6
v 1.7 2.1 -2.6
v 1.8 2 -2.6
v 1.8 2.1 -2.6
v 1.7 2.4 -2.7
v 1.7 2.6 -2.7
v 1.8 2.4 -2.7
v 1.8 2.6 -2.7
v 1.7 2 -2.1
v 1.7 2.1 -2.1
v 1.7 2.4 -2.1
v 1.7 2.6 -2.1
v 1.8 2 -2.1
v 1.8 2.1 -2.1
v 1.8 2.4 -2.1
v 1.8 2.6 -2.1
v 1.7 2 -2.3
v 1.7 2.1 -2.3
v 1.7 2.2 -2.3
v 1.7 2.3 -2.3
v 1.8 2 -2.3
v 1.8 2.1 -2.3
v 1.8 2.2 -2.3
v 1.8 2.3 -2.3
v 1.7 2 -2.5
v 1.7 2.1 -2.5
v 1.7 2.4 -2.5
v 1.7 2.5 -2.5
v 1.8 2 -2.5
v 1.8 2.1 -2.5
v 1.8 2.4 -2.5
v 1.8 2.5 -2.5
v 1.7 2.5 -2.6
v 1.7 2.6 -2.6
v 1.8 2.5 -2.6
v 1.8 2.6 -2.6
v 1.7 2 -2.7
v 1.7 2.1 -2.7
v 1.8 2 -2.7
v 1.8 2.1 -2.7
v 1.1 2 -2.8
v 1.1 2.7 -2.8
v 1.6 2 -2.8
v 1.6 2.1 -2.8
v 1.7 2 -2.8
v 1.7 2.1 -2.8
v 1.8 2.1 -2.8
v 1.8 2.7 -2.8
v 1.1 2 -2
v 1.7 2 -2
v 1.8 2 -2
v 1.2 2 -2.1
v 1.6 2 -2.1
v 1.7 2 -2.1
v 1.8 2 -2.1
v 1.6 2 -2.2
v 1.7 2 -2.2
v 1.8 2 -2.2
v 1.6 2 -2.3
v 1.7 2 -2.3
v 1.8 2 -2.3
v 1.6 2 -2.4
v 1.7 2 -2.4
v 1.8 2 -2.4
v 1.6 2 -2.5
v 1.7 2 -2.5
v 1.8 2 -2.5
v 1.6 2 -2.6
v 1.7 2 -2.6
v 1.8 2 -2.6
v 1.2 2 -2.7
v 1.6 2 -2.7
v 1.7 2 -2.7
v 1.8 2 -2.7
v 1.1 2 -2.8
v 1.6 2 -2.8
v 1.7 2 -2.8
v 1.7 2.1 -2.1
v 1.8 2.1 -2.1
v 1.7 2.1 -2.2
v 1.8 2.1 -2.2
v 1.7 2.1 -2.3
v 1.8 2.1 -2.3
v 1.7 2.1 -2.4
v 1.8 2.1 -2.4
v 1.7 2.1 -2.5
v 1.8 2.1 -2.5
v 1.7 2.1 -2.6
v 1.8 2.1 -2.6
v 1.7 2.1 -2.7
v 1.8 2.1 -2.7
v 1.7 2.1 -2.8
v 1.8 2.1 -2.8
v 1.7 2.3 -2.3
v 1.8 2.3 -2.3
v 1.7 2.3 -2.5
v 1.8 2.3 -2.5
v 1.7 2.5 -2.2
v 1.8 2.5 -2.2
v 1.7 2.5 -2.3
v 1.8 2.5 -2.3
v 1.7 2.5 -2.5
v 1.8 2.5 -2.5
v 1.7 2.5 -2.6
v 1.8 2.5 -2.6
v 1.7 2.6 -2.1
v 1.8 2.6 -2.1
v 1.7 2.6 -2.2
v 1.8 2.6 -2.2
v 1.7 2.6 -2.6
v 1.8 2.6 -2.6
v 1.7 2.6 -2.7
v 1.8 2.6 -2.7
v 1.7 2.2 -2.3
v 1.8 2.2 -2.3
v 1.7 2.2 -2.5
v 1.8 2.2 -2.5
v 1.7 2.4 -2.1
v 1.8 2.4 -2.1
v 1.7 2.4 -2.3
v 1.8 2.4 -2.3
v 1.7 2.4 -2.5
v 1.8 2.4 -2.5
v 1.7 2.4 -2.7
v 1.8 2.4 -2.7
v 1.1 2.7 -2
v 1.8 2.7 -2
v 1.1 2.7 -2.8
v 1.8 2.7 -2.8

# faces
f 3/3/1 2/3/1 1/3/1
f 4/3/1 2/3/1 3/3/1
f 5/4/2 6/4/2 13/4/2
f 13/4/2 6/4/2 14/4/2
f 7/4/2 8/4/2 15/4/2
f 15/4/2 8/4/2 16/4/2
f 9/4/2 10/4/2 17/4/2
f 17/4/2 10/4/2 18/4/2
f 11/4/2 12/4/2 19/4/2
f 19/4/2 12/4/2 20/4/2
f 21/3/2 22/3/2 23/3/2
f 23/3/2 22/3/2 24/3/2
f 25/1/2 26/1/2 29/1/2
f 29/1/2 26/1/2 30/1/2
f 27/1/2 28/1/2 31/1/2
f 31/1/2 28/1/2 32/1/2
f 25/1/2 29/1/2 33/1/2
f 33/1/2 29/1/2 34/1/2
f 32/1/2 28/1/2 35/1/2
f 35/1/2 28/1/2 36/1/2
f 37/2/2 38/2/2 45/2/2
f 45/2/2 38/2/2 46/2/2
f 39/2/2 40/2/2 47/2/2
f 47/2/2 40/2/2 48/2/2
f 41/2/2 42/2/2 49/2/2
f 49/2/2 42/2/2 50/2/2
f 43/2/2 44/2/2 51/2/2
f 51/2/2 44/2/2 52/2/2
f 49/3/2 50/3/2 54/3/2
f 52/3/2 53/3/2 54/3/2
f 51/3/2 52/3/2 54/3/2
f 50/3/2 51/3/2 54/3/2
f 45/3/2 46/3/2 54/3/2
f 48/3/2 49/3/2 54/3/2
f 47/3/2 48/3/2 54/3/2
f 46/3/2 47/3/2 54/3/2
f 54/3/2 53/3/2 55/3/2
f 45/3/2 54/3/2 56/3/2
f 55/3/2 53/3/2 57/3/2
f 45/3/2 56/3/2 58/3/2
f 56/3/2 57/3/2 58/3/2
f 58/3/2 57/3/2 59/3/2
f 57/3/2 53/3/2 60/3/2
f 59/3/2 57/3/2 60/3/2
f 60/3/2 53/3/2 61/3/2
f 59/3/2 60/3/2 63/3/2
f 63/3/2 60/3/2 64/3/2
f 45/3/2 58/3/2 66/3/2
f 64/3/2 65/3/2 67/3/2
f 62/3/2 63/3/2 67/3/2
f 63/3/2 64/3/2 67/3/2
f 67/3/2 65/3/2 68/3/2
f 61/3/2 53/3/2 69/3/2
f 67/3/2 68/3/2 70/3/2
f 68/3/2 69/3/2 70/3/2
f 45/3/2 66/3/2 70/3/2
f 66/3/2 67/3/2 70/3/2
f 69/3/2 53/3/2 71/3/2
f 70/3/2 69/3/2 71/3/2
f 74/3/3 73/3/3 72/3/3
f 75/3/3 73/3/3 74/3/3
f 76/2/3 75/2/3 74/2/3
f 77/3/3 73/3/3 75/3/3
f 77/2/3 75/2/3 76/2/3
f 78/3/3 73/3/3 77/3/3
f 83/2/3 80/2/3 79/2/3
f 84/2/3 80/2/3 83/2/3
f 85/3/3 82/3/3 81/3/3
f 86/3/3 82/3/3 85/3/3
f 89/3/3 88/3/3 87/3/3
f 90/3/3 88/3/3 89/3/3
f 93/2/3 92/2/3 91/2/3
f 94/2/3 92/2/3 93/2/3
f 97/3/3 96/3/3 95/3/3
f 98/3/3 96/3/3 97/3/3
f 101/2/3 100/2/3 99/2/3
f 102/2/3 100/2/3 101/2/3
f 105/3/3 104/3/3 103/3/3
f 106/3/3 104/3/3 105/3/3
f 107/2/4 108/2/4 111/2/4
f 111/2/4 108/2/4 112/2/4
f 109/3/4 110/3/4 113/3/4
f 113/3/4 110/3/4 114/3/4
f 115/2/4 116/2/4 119/2/4
f 119/2/4 116/2/4 120/2/4
f 117/3/4 118/3/4 121/3/4
f 121/3/4 118/3/4 122/3/4
f 123/2/4 124/2/4 127/2/4
f 127/2/4 124/2/4 128/2/4
f 125/3/4 126/3/4 129/3/4
f 129/3/4 126/3/4 130/3/4
f 131/3/4 132/3/4 133/3/4
f 133/3/4 132/3/4 134/3/4
f 135/2/4 136/2/4 137/2/4
f 137/2/4 136/2/4 138/2/4
f 139/3/4 140/3/4 141/3/4
f 141/3/4 140/3/4 142/3/4
f 141/4/4 142/4/4 143/4/4
f 142/3/4 140/3/4 144/3/4
f 143/4/4 142/4/4 144/4/4
f 144/3/4 140/3/4 145/3/4
f 145/3/4 140/3/4 146/3/4
f 150/3/5 148/3/5 147/3/5
f 151/3/5 148/3/5 150/3/5
f 152/2/5 149/2/5 148/2/5
f 152/3/5 148/3/5 151/3/5
f 153/2/5 149/2/5 152/2/5
f 154/2/5 151/2/5 150/2/5
f 154/4/5 152/4/5 151/4/5
f 155/4/5 152/4/5 154/4/5
f 157/2/5 154/2/5 150/2/5
f 157/2/5 156/2/5 155/2/5
f 157/2/5 155/2/5 154/2/5
f 158/2/5 156/2/5 157/2/5
f 159/2/5 156/2/5 158/2/5
f 160/2/5 157/2/5 150/2/5
f 160/4/5 158/4/5 157/4/5
f 161/4/5 158/4/5 160/4/5
f 163/2/5 160/2/5 150/2/5
f 163/2/5 162/2/5 161/2/5
f 163/2/5 161/2/5 160/2/5
f 164/2/5 162/2/5 163/2/5
f 165/2/5 162/2/5 164/2/5
f 166/2/5 163/2/5 150/2/5
f 166/4/5 164/4/5 163/4/5
f 167/4/5 164/4/5 166/4/5
f 169/3/5 150/3/5 147/3/5
f 169/2/5 168/2/5 167/2/5
f 169/2/5 167/2/5 166/2/5
f 169/2/5 166/2/5 150/2/5
f 170/2/5 168/2/5 169/2/5
f 171/2/5 168/2/5 170/2/5
f 172/2/5 168/2/5 171/2/5
f 173/3/5 169/3/5 147/3/5
f 173/3/5 170/3/5 169/3/5
f 174/4/5 171/4/5 170/4/5
f 174/3/5 170/3/5 173/3/5
f 175/4/5 171/4/5 174/4/5
f 178/3/5 177/3/5 176/3/5
f 179/3/5 177/3/5 178/3/5
f 182/3/5 181/3/5 180/3/5
f 183/3/5 181/3/5 182/3/5
f 186/3/5 185/3/5 184/3/5
f 187/3/5 185/3/5 186/3/5
f 190/3/5 189/3/5 188/3/5
f 191/3/5 189/3/5 190/3/5
f 194/3/5 193/3/5 192/3/5
f 195/3/5 193/3/5 194/3/5
f 198/3/5 197/3/5 196/3/5
f 199/3/5 197/3/5 198/3/5
f 202/3/5 201/3/5 200/3/5
f 203/3/5 201/3/5 202/3/5
f 206/3/5 205/3/5 204/3/5
f 207/3/5 205/3/5 206/3/5
f 210/3/5 209/3/5 208/3/5
f 211/3/5 209/3/5 210/3/5
f 212/3/6 213/3/6 214/3/6
f 214/3/6 213/3/6 215/3/6
f 216/3/6 217/3/6 218/3/6
f 218/3/6 217/3/6 219/3/6
f 220/3/6 221/3/6 222/3/6
f 222/3/6 221/3/6 223/3/6
f 224/3/6 225/3/6 226/3/6
f 226/3/6 225/3/6 227/3/6
