# MagicaVoxel @ Ephtracy

# material
mtllib shortSword.mtl
usemtl palette

# normals
vn -1 0 0
vn 1 0 0
vn 0 0 1
vn 0 0 -1
vn 0 -1 0
vn 0 1 0

# texcoords
vt 0.505859 0.5
vt 0.537109 0.5
vt 0.974609 0.5

# verts
v -9 10 3
v -9 10 -2
v -9 12 3
v -9 12 -2
v -6 12 3
v -6 12 -2
v -6 32 3
v -6 32 -2
v -5 32 3
v -5 32 -2
v -5 33 3
v -5 33 -2
v -4 0 3
v -4 0 -2
v -4 10 3
v -4 10 -2
v -4 33 3
v -4 33 -2
v -4 34 3
v -4 34 -2
v -3 34 3
v -3 34 -2
v -3 35 3
v -3 35 -2
v -2 35 3
v -2 35 -2
v -2 36 3
v -2 36 -2
v 0 35 3
v 0 35 -2
v 0 36 3
v 0 36 -2
v 1 34 3
v 1 34 -2
v 1 35 3
v 1 35 -2
v 2 0 3
v 2 0 -2
v 2 10 3
v 2 10 -2
v 2 33 3
v 2 33 -2
v 2 34 3
v 2 34 -2
v 3 32 3
v 3 32 -2
v 3 33 3
v 3 33 -2
v 4 12 3
v 4 12 -2
v 4 32 3
v 4 32 -2
v 7 10 3
v 7 10 -2
v 7 12 3
v 7 12 -2
v -9 10 3
v -9 12 3
v -6 12 3
v -6 32 3
v -5 32 3
v -5 33 3
v -4 0 3
v -4 10 3
v -4 33 3
v -4 34 3
v -3 34 3
v -3 35 3
v -2 35 3
v -2 36 3
v 0 35 3
v 0 36 3
v 1 34 3
v 1 35 3
v 2 0 3
v 2 10 3
v 2 33 3
v 2 34 3
v 3 32 3
v 3 33 3
v 4 12 3
v 4 32 3
v 7 10 3
v 7 12 3
v -9 10 -2
v -9 12 -2
v -6 12 -2
v -6 32 -2
v -5 32 -2
v -5 33 -2
v -4 0 -2
v -4 10 -2
v -4 33 -2
v -4 34 -2
v -3 34 -2
v -3 35 -2
v -2 35 -2
v -2 36 -2
v 0 35 -2
v 0 36 -2
v 1 34 -2
v 1 35 -2
v 2 0 -2
v 2 10 -2
v 2 33 -2
v 2 34 -2
v 3 32 -2
v 3 33 -2
v 4 12 -2
v 4 32 -2
v 7 10 -2
v 7 12 -2
v -4 0 3
v 2 0 3
v -4 0 -2
v 2 0 -2
v -9 10 3
v -4 10 3
v 2 10 3
v 7 10 3
v -9 10 -2
v -4 10 -2
v 2 10 -2
v 7 10 -2
v -9 12 3
v -6 12 3
v 4 12 3
v 7 12 3
v -9 12 -2
v -6 12 -2
v 4 12 -2
v 7 12 -2
v -6 32 3
v -5 32 3
v 3 32 3
v 4 32 3
v -6 32 -2
v -5 32 -2
v 3 32 -2
v 4 32 -2
v -5 33 3
v -4 33 3
v 2 33 3
v 3 33 3
v -5 33 -2
v -4 33 -2
v 2 33 -2
v 3 33 -2
v -4 34 3
v -3 34 3
v 1 34 3
v 2 34 3
v -4 34 -2
v -3 34 -2
v 1 34 -2
v 2 34 -2
v -3 35 3
v -2 35 3
v 0 35 3
v 1 35 3
v -3 35 -2
v -2 35 -2
v 0 35 -2
v 1 35 -2
v -2 36 3
v 0 36 3
v -2 36 -2
v 0 36 -2

# faces
f 3/1/1 2/1/1 1/1/1
f 4/1/1 2/1/1 3/1/1
f 7/3/1 6/3/1 5/3/1
f 8/3/1 6/3/1 7/3/1
f 11/3/1 10/3/1 9/3/1
f 12/3/1 10/3/1 11/3/1
f 15/2/1 14/2/1 13/2/1
f 16/2/1 14/2/1 15/2/1
f 19/3/1 18/3/1 17/3/1
f 20/3/1 18/3/1 19/3/1
f 23/3/1 22/3/1 21/3/1
f 24/3/1 22/3/1 23/3/1
f 27/3/1 26/3/1 25/3/1
f 28/3/1 26/3/1 27/3/1
f 29/3/2 30/3/2 31/3/2
f 31/3/2 30/3/2 32/3/2
f 33/3/2 34/3/2 35/3/2
f 35/3/2 34/3/2 36/3/2
f 37/2/2 38/2/2 39/2/2
f 39/2/2 38/2/2 40/2/2
f 41/3/2 42/3/2 43/3/2
f 43/3/2 42/3/2 44/3/2
f 45/3/2 46/3/2 47/3/2
f 47/3/2 46/3/2 48/3/2
f 49/3/2 50/3/2 51/3/2
f 51/3/2 50/3/2 52/3/2
f 53/1/2 54/1/2 55/1/2
f 55/1/2 54/1/2 56/1/2
f 59/1/3 58/1/3 57/1/3
f 61/3/3 60/3/3 59/3/3
f 64/1/3 59/1/3 57/1/3
f 65/3/3 62/3/3 61/3/3
f 67/3/3 66/3/3 65/3/3
f 69/3/3 68/3/3 67/3/3
f 71/3/3 69/3/3 67/3/3
f 71/3/3 70/3/3 69/3/3
f 72/3/3 70/3/3 71/3/3
f 73/3/3 67/3/3 65/3/3
f 73/3/3 71/3/3 67/3/3
f 74/3/3 71/3/3 73/3/3
f 75/2/3 64/2/3 63/2/3
f 76/1/3 59/1/3 64/1/3
f 76/2/3 64/2/3 75/2/3
f 77/3/3 65/3/3 61/3/3
f 77/3/3 73/3/3 65/3/3
f 78/3/3 73/3/3 77/3/3
f 79/3/3 61/3/3 59/3/3
f 79/3/3 77/3/3 61/3/3
f 80/3/3 77/3/3 79/3/3
f 81/1/3 59/1/3 76/1/3
f 81/3/3 79/3/3 59/3/3
f 82/3/3 79/3/3 81/3/3
f 83/1/3 81/1/3 76/1/3
f 84/1/3 81/1/3 83/1/3
f 85/1/4 86/1/4 87/1/4
f 87/3/4 88/3/4 89/3/4
f 85/1/4 87/1/4 92/1/4
f 89/3/4 90/3/4 93/3/4
f 93/3/4 94/3/4 95/3/4
f 95/3/4 96/3/4 97/3/4
f 95/3/4 97/3/4 99/3/4
f 97/3/4 98/3/4 99/3/4
f 99/3/4 98/3/4 100/3/4
f 93/3/4 95/3/4 101/3/4
f 95/3/4 99/3/4 101/3/4
f 101/3/4 99/3/4 102/3/4
f 91/2/4 92/2/4 103/2/4
f 92/1/4 87/1/4 104/1/4
f 103/2/4 92/2/4 104/2/4
f 89/3/4 93/3/4 105/3/4
f 93/3/4 101/3/4 105/3/4
f 105/3/4 101/3/4 106/3/4
f 87/3/4 89/3/4 107/3/4
f 89/3/4 105/3/4 107/3/4
f 107/3/4 105/3/4 108/3/4
f 104/1/4 87/1/4 109/1/4
f 87/3/4 107/3/4 109/3/4
f 109/3/4 107/3/4 110/3/4
f 104/1/4 109/1/4 111/1/4
f 111/1/4 109/1/4 112/1/4
f 115/2/5 114/2/5 113/2/5
f 116/2/5 114/2/5 115/2/5
f 121/1/5 118/1/5 117/1/5
f 122/1/5 118/1/5 121/1/5
f 123/1/5 120/1/5 119/1/5
f 124/1/5 120/1/5 123/1/5
f 125/1/6 126/1/6 129/1/6
f 129/1/6 126/1/6 130/1/6
f 127/1/6 128/1/6 131/1/6
f 131/1/6 128/1/6 132/1/6
f 133/3/6 134/3/6 137/3/6
f 137/3/6 134/3/6 138/3/6
f 135/3/6 136/3/6 139/3/6
f 139/3/6 136/3/6 140/3/6
f 141/3/6 142/3/6 145/3/6
f 145/3/6 142/3/6 146/3/6
f 143/3/6 144/3/6 147/3/6
f 147/3/6 144/3/6 148/3/6
f 149/3/6 150/3/6 153/3/6
f 153/3/6 150/3/6 154/3/6
f 151/3/6 152/3/6 155/3/6
f 155/3/6 152/3/6 156/3/6
f 157/3/6 158/3/6 161/3/6
f 161/3/6 158/3/6 162/3/6
f 159/3/6 160/3/6 163/3/6
f 163/3/6 160/3/6 164/3/6
f 165/3/6 166/3/6 167/3/6
f 167/3/6 166/3/6 168/3/6
